<svg version="1.1" xmlns="http://www.w3.org/2000/svg" viewBox="0 0 400 400" preserveAspectRatio="xMinYMin meet">
    <g stroke="none" stroke-width="1" fill="none" fill-rule="evenodd">
        <g transform="translate(20.000000, 40.000000)" fill="#FFCCBC">
            <path d="M200 320C111.63444 320 40 248.36556 40 160 40 71.63444 111.63444 0 200 0L200 40C133.72583 40 80 93.72583 80 160 80 226.27417 133.72583 280 200 280L200 320ZM348.369659 220C355.869857 201.471371 360 181.218009 360 160 360 138.781991 355.869857 118.528629 348.369659 100L303.946137 100C314.156335 117.650376 320 138.142758 320 160 320 181.857242 314.156335 202.349624 303.946117 220.000033L348.369659 220Z"/>
            <circle cx="200" cy="160" r="80"/>
            <path d="M60 100L9.15604191 100C3.20707661 118.940825 0 139.095886 0 160 0 180.904115 3.20707661 201.059176 9.15604579 220.000001L60 220 60 100Z"/>
        </g>
    </g>
</svg>